<svg width="8038" height="1309" viewBox="0 0 8038 1309" fill="none" xmlns="http://www.w3.org/2000/svg">
<path fill-rule="evenodd" clip-rule="evenodd" d="M7440.73 36.4018C7458.05 12.4187 7487.77 -2.63713 7525.03 0.384258C7559.14 3.15037 7581.7 25.5907 7592.05 56.6108C7604.75 94.6889 7617.02 133.078 7629.49 171.081C7651.3 237.528 7672.87 303.942 7695.05 370.175L7696.19 373.593C7720.28 445.381 7745.9 517.41 7769.22 589.779C7775.67 609.787 7777.04 627.321 7771.27 642.96C7765.48 658.623 7753.24 670.442 7736.67 680.551C7644.27 736.904 7578.6 815.311 7540.21 916.447C7530.76 941.354 7522.82 965.284 7522.47 990.527C7522.46 991.267 7522.43 992.003 7522.4 992.59L7522.4 992.753C7522.37 993.419 7522.35 993.915 7522.35 994.373C7522.35 994.817 7522.36 995.116 7522.38 995.323C7522.39 995.465 7522.4 995.535 7522.4 995.546C7523.38 999.368 7524.42 1002.18 7525.63 1003.99C7526.18 1004.82 7526.63 1005.22 7526.91 1005.41C7527.14 1005.57 7527.43 1005.72 7527.97 1005.78L7528.01 1005.79L7528.03 1005.77C7528.04 1005.75 7528.05 1005.74 7528.05 1005.73C7528.9 1004.47 7529.69 1002.09 7530.41 998.502C7536.79 966.59 7543.1 933.752 7554.36 901.854C7589.34 802.763 7653.36 728.604 7747.23 681.257C7768.31 670.629 7780.34 656.342 7784.48 634.264C7787.37 618.85 7791.53 603.035 7795 587.436L7795.66 584.481L7795.66 584.475C7812.3 510.151 7828.2 435.887 7852.38 363.685C7860.44 339.626 7871.73 323.074 7886.46 312.415C7901.15 301.788 7918.08 297.885 7935.71 296.857C7977.76 294.404 8014.59 324.663 8029.77 362.105C8040.95 389.65 8037.54 416.785 8034.5 441.053L8034.32 442.487C8033 453.069 8032.25 463.722 8031.41 474.753C8030.59 485.676 8029.68 496.925 8028.04 508.151C8025.89 522.74 8024.44 537.447 8023.06 552.388C8021.69 567.25 8020.38 582.419 8018.54 597.528C8016.82 611.682 8015.41 625.899 8014.01 640.243L8013.79 642.402C8012.46 656.001 8011.12 669.719 8009.51 683.416C8005.1 720.966 8001.57 758.406 7997.51 796.237C7992.74 840.681 7986.18 885.01 7975.31 928.615C7939.12 1073.78 7861.25 1189.65 7726.78 1262.89C7682.76 1286.87 7634.96 1302.69 7584.91 1306.96C7485.61 1315.45 7390.47 1298.09 7304.86 1242.09C7262.58 1214.42 7226.91 1179.44 7195.21 1141.15C7148.49 1084.69 7114.89 1020.74 7086.33 954.668C7062.88 900.405 7041.27 845.404 7019.64 790.664C6997.99 735.864 6976.3 681.306 6952.59 627.624C6944.36 608.994 6936.25 589.807 6930.35 569.564C6922.27 541.808 6929.57 515.907 6944 496.882C6958.25 478.101 6980 465.306 7002.05 464.109C7022.02 463.024 7039.24 466.813 7053.93 475.461C7068.54 484.071 7079.86 497.034 7088.83 513.038C7119.89 568.439 7150.18 624.369 7180.73 679.882C7188.84 694.628 7196.93 709.281 7205.26 723.766L7205.6 724.356C7209.05 730.296 7212.01 734.669 7215.88 737.667L7216.07 737.812C7218.28 739.491 7219.91 740.202 7220.99 740.416C7221.47 740.511 7221.83 740.506 7222.14 740.455C7222.42 740.407 7222.85 740.287 7223.45 739.947L7223.57 739.875C7224.27 739.463 7224.47 739.185 7224.5 739.147C7224.52 739.117 7224.58 739.037 7224.63 738.755C7224.8 737.942 7224.78 736.279 7224 733.137C7221.42 722.771 7215.99 714.219 7209.98 702.375C7164.36 612.44 7117.49 522.677 7073.64 431.499L7071.84 427.735C7062.75 408.844 7053.34 388.89 7047.85 367.148C7039.1 332.458 7054.32 292.922 7084.76 271.812L7085.13 271.555C7116.79 249.809 7156.19 249.36 7186.58 271.272C7202.16 282.506 7211.3 298.118 7218.59 312.899C7248.57 373.648 7278.69 434.403 7308.45 495.321C7329.06 537.509 7349.28 580.438 7369.69 622.525C7372.96 629.258 7377.03 635.772 7381.45 642.706C7383.75 646.31 7385.46 647.735 7386.44 648.195C7386.79 648.358 7387.07 648.415 7387.45 648.395C7387.89 648.371 7388.84 648.217 7390.4 647.413C7393.81 645.656 7394.94 643.98 7395.34 642.983L7395.37 642.893C7395.73 641.933 7395.99 640.113 7394.7 636.842C7385.55 613.517 7376.06 590.845 7366.67 567.326C7321.85 455.135 7276.86 342.953 7232.45 230.552C7225.01 211.705 7218.74 190.463 7222.3 167.133C7227.61 132.463 7257.4 97.813 7294.1 90.2671C7328.6 83.1735 7360.3 92.7473 7382.91 122.256C7394.61 137.512 7401.07 155.629 7407.19 171.106C7437.98 248.973 7468.65 326.893 7499.34 404.788C7513.75 441.375 7527.97 477.895 7542.53 514.325C7544.71 519.763 7547.26 524.656 7550.32 528.413C7552.17 530.679 7553.67 531.78 7554.63 532.185C7555.02 532.35 7555.26 532.375 7555.43 532.371C7555.59 532.367 7556.03 532.328 7556.81 531.947C7559.14 530.808 7559.85 529.732 7560.09 529.199C7560.32 528.696 7560.67 527.483 7559.94 524.958C7554.32 505.583 7548.98 486.471 7543.04 467.503L7542.46 465.668C7520.41 395.727 7498.36 325.824 7475.86 256.075C7461.2 210.624 7447.76 165.551 7430.67 121.808C7419.07 92.1144 7423.54 60.1999 7440.73 36.4018Z" fill="white"/>
<path d="M156 1020C126.667 1020 104 1012 88 996C72 979.333 64 956 64 926V391C64 360.333 72 337 88 321C104 305 126.667 297 156 297C186 297 208.667 305 224 321C240 337 248 360.333 248 391V578H539V391C539 360.333 546.667 337 562 321C578 305 601 297 631 297C660.333 297 682.667 305 698 321C714 337 722 360.333 722 391V926C722 956 714 979.333 698 996C682.667 1012 660.333 1020 631 1020C601 1020 578 1012 562 996C546.667 979.333 539 956 539 926V729H248V926C248 956 240.333 979.333 225 996C209.667 1012 186.667 1020 156 1020ZM1106.13 1022C1046.13 1022 994.133 1011.67 950.133 991C906.799 969.667 873.466 939.667 850.133 901C826.799 862.333 815.133 816.667 815.133 764C815.133 713.333 826.133 669 848.133 631C870.799 592.333 901.466 562.333 940.133 541C979.466 519 1024.13 508 1074.13 508C1110.8 508 1144.13 514 1174.13 526C1204.13 537.333 1229.8 554.333 1251.13 577C1272.47 599 1288.47 625.667 1299.13 657C1310.47 688.333 1316.13 723.333 1316.13 762C1316.13 775.333 1312.47 785.333 1305.13 792C1297.8 798 1286.13 801 1270.13 801H964.133V717H1186.13L1170.13 730C1170.13 705.333 1166.8 685.333 1160.13 670C1153.47 654.667 1143.47 643 1130.13 635C1117.47 627 1101.47 623 1082.13 623C1061.47 623 1043.47 628 1028.13 638C1013.47 647.333 1002.13 661.333 994.133 680C986.133 698.667 982.133 722 982.133 750V759C982.133 806.333 992.466 840.333 1013.13 861C1034.47 881 1067.13 891 1111.13 891C1125.8 891 1142.47 889.333 1161.13 886C1180.47 882 1198.8 876.667 1216.13 870C1233.47 863.333 1248.47 862.333 1261.13 867C1273.8 871 1283.47 878.333 1290.13 889C1297.47 899 1301.47 910.667 1302.13 924C1302.8 936.667 1299.8 949.333 1293.13 962C1286.47 974 1275.47 983.333 1260.13 990C1236.8 1000.67 1211.8 1008.67 1185.13 1014C1159.13 1019.33 1132.8 1022 1106.13 1022ZM1527.03 1200C1506.36 1200 1489.7 1194.67 1477.03 1184C1464.36 1173.33 1456.36 1159.33 1453.03 1142C1450.36 1124.67 1453.36 1106.33 1462.03 1087L1529.03 942V1014L1358.03 623C1349.36 603 1346.36 584.333 1349.03 567C1352.36 549.667 1361.36 536 1376.03 526C1390.7 515.333 1410.7 510 1436.03 510C1457.36 510 1474.36 515 1487.03 525C1500.36 534.333 1512.36 553 1523.03 581L1623.03 841H1589.03L1695.03 580C1705.7 552.667 1717.7 534.333 1731.03 525C1745.03 515 1763.7 510 1787.03 510C1807.03 510 1823.03 515.333 1835.03 526C1847.03 536 1854.36 549.667 1857.03 567C1859.7 584.333 1856.7 603 1848.03 623L1621.03 1133C1609.03 1159.67 1595.7 1177.33 1581.03 1186C1567.03 1195.33 1549.03 1200 1527.03 1200ZM2309.18 1020C2281.18 1020 2259.85 1012.67 2245.18 998C2230.51 983.333 2223.18 961.667 2223.18 933V388C2223.18 358.667 2230.51 336.333 2245.18 321C2259.85 305 2279.18 297 2303.18 297C2324.51 297 2341.18 301 2353.18 309C2365.18 317 2378.51 330.333 2393.18 349L2710.18 745H2682.18V383C2682.18 355 2689.18 333.667 2703.18 319C2717.85 304.333 2739.18 297 2767.18 297C2795.18 297 2816.18 304.333 2830.18 319C2844.85 333.667 2852.18 355 2852.18 383V937C2852.18 962.333 2845.51 982.667 2832.18 998C2818.85 1012.67 2800.85 1020 2778.18 1020C2755.51 1020 2737.51 1016 2724.18 1008C2711.51 999.333 2697.85 986 2683.18 968L2366.18 571H2394.18V933C2394.18 961.667 2386.85 983.333 2372.18 998C2358.18 1012.67 2337.18 1020 2309.18 1020ZM3236.99 1022C3176.99 1022 3124.99 1011.67 3080.99 991C3037.66 969.667 3004.33 939.667 2980.99 901C2957.66 862.333 2945.99 816.667 2945.99 764C2945.99 713.333 2956.99 669 2978.99 631C3001.66 592.333 3032.33 562.333 3070.99 541C3110.33 519 3154.99 508 3204.99 508C3241.66 508 3274.99 514 3304.99 526C3334.99 537.333 3360.66 554.333 3381.99 577C3403.33 599 3419.33 625.667 3429.99 657C3441.33 688.333 3446.99 723.333 3446.99 762C3446.99 775.333 3443.33 785.333 3435.99 792C3428.66 798 3416.99 801 3400.99 801H3094.99V717H3316.99L3300.99 730C3300.99 705.333 3297.66 685.333 3290.99 670C3284.33 654.667 3274.33 643 3260.99 635C3248.33 627 3232.33 623 3212.99 623C3192.33 623 3174.33 628 3158.99 638C3144.33 647.333 3132.99 661.333 3124.99 680C3116.99 698.667 3112.99 722 3112.99 750V759C3112.99 806.333 3123.33 840.333 3143.99 861C3165.33 881 3197.99 891 3241.99 891C3256.66 891 3273.33 889.333 3291.99 886C3311.33 882 3329.66 876.667 3346.99 870C3364.33 863.333 3379.33 862.333 3391.99 867C3404.66 871 3414.33 878.333 3420.99 889C3428.33 899 3432.33 910.667 3432.99 924C3433.66 936.667 3430.66 949.333 3423.99 962C3417.33 974 3406.33 983.333 3390.99 990C3367.66 1000.67 3342.66 1008.67 3315.99 1014C3289.99 1019.33 3263.66 1022 3236.99 1022ZM3611.68 1020C3583.68 1020 3562.01 1011.67 3546.68 995C3531.35 978.333 3523.68 954.333 3523.68 923V607C3523.68 575.667 3531.35 551.667 3546.68 535C3562.01 518.333 3583.68 510 3611.68 510C3640.35 510 3662.35 518.333 3677.68 535C3693.68 551.667 3701.68 575.667 3701.68 607V923C3701.68 954.333 3694.01 978.333 3678.68 995C3663.35 1011.67 3641.01 1020 3611.68 1020ZM3611.68 439C3580.35 439 3556.01 431.667 3538.68 417C3522.01 402.333 3513.68 381 3513.68 353C3513.68 325.667 3522.01 304.667 3538.68 290C3556.01 275.333 3580.35 268 3611.68 268C3644.35 268 3669.01 275.333 3685.68 290C3702.35 304.667 3710.68 325.667 3710.68 353C3710.68 381 3702.35 402.333 3685.68 417C3669.01 431.667 3644.35 439 3611.68 439ZM4048.93 1202C4012.26 1202 3977.93 1199.33 3945.93 1194C3913.93 1189.33 3886.26 1182.33 3862.93 1173C3843.6 1166.33 3829.93 1156.67 3821.93 1144C3813.93 1131.33 3810.26 1118 3810.93 1104C3811.6 1090 3815.26 1077.33 3821.93 1066C3829.26 1054.67 3838.93 1046.33 3850.93 1041C3862.93 1036.33 3876.26 1036.67 3890.93 1042C3920.26 1054 3946.93 1061.67 3970.93 1065C3994.93 1069 4015.26 1071 4031.93 1071C4072.6 1071 4102.93 1062.33 4122.93 1045C4143.6 1028.33 4153.93 1002 4153.93 966V903H4161.93C4151.93 931 4131.6 954 4100.93 972C4070.26 989.333 4036.93 998 4000.93 998C3956.93 998 3918.6 988 3885.93 968C3853.26 947.333 3827.6 918.667 3808.93 882C3790.93 845.333 3781.93 802.333 3781.93 753C3781.93 715.667 3787.26 682 3797.93 652C3808.6 622 3823.26 596.333 3841.93 575C3861.26 553.667 3884.26 537.333 3910.93 526C3938.26 514 3968.26 508 4000.93 508C4038.26 508 4071.6 516.667 4100.93 534C4130.93 551.333 4150.93 574 4160.93 602L4150.93 643V599C4150.93 570.333 4158.6 548.333 4173.93 533C4189.93 517.667 4211.93 510 4239.93 510C4267.93 510 4289.26 517.667 4303.93 533C4319.26 548.333 4326.93 570.333 4326.93 599V945C4326.93 1030.33 4302.93 1094.33 4254.93 1137C4206.93 1180.33 4138.26 1202 4048.93 1202ZM4055.93 867C4075.93 867 4092.93 862.667 4106.93 854C4120.93 844.667 4131.93 831.667 4139.93 815C4147.93 797.667 4151.93 777 4151.93 753C4151.93 717 4143.26 689 4125.93 669C4108.6 649 4085.26 639 4055.93 639C4037.26 639 4020.6 643.667 4005.93 653C3991.26 661.667 3979.93 674.667 3971.93 692C3964.6 708.667 3960.93 729 3960.93 753C3960.93 789 3969.6 817 3986.93 837C4004.26 857 4027.26 867 4055.93 867ZM4518.91 1020C4490.91 1020 4469.24 1012.33 4453.91 997C4438.57 981.667 4430.91 959.333 4430.91 930V387C4430.91 357.667 4438.57 335.333 4453.91 320C4469.24 304.667 4490.91 297 4518.91 297C4547.57 297 4569.57 304.667 4584.91 320C4600.91 335.333 4608.91 357.667 4608.91 387V605H4592.91C4608.91 573.667 4631.57 549.667 4660.91 533C4690.91 516.333 4724.91 508 4762.91 508C4802.24 508 4834.57 515.667 4859.91 531C4885.24 545.667 4904.24 569 4916.91 601C4929.57 632.333 4935.91 672 4935.91 720V930C4935.91 959.333 4928.24 981.667 4912.91 997C4897.57 1012.33 4875.57 1020 4846.91 1020C4818.24 1020 4796.24 1012.33 4780.91 997C4765.57 981.667 4757.91 959.333 4757.91 930V727C4757.91 697 4752.57 675.667 4741.91 663C4731.91 650.333 4716.91 644 4696.91 644C4670.24 644 4648.91 652.667 4632.91 670C4616.91 686.667 4608.91 709.333 4608.91 738V930C4608.91 990 4578.91 1020 4518.91 1020ZM5361.35 1022C5323.35 1022 5289.35 1013 5259.35 995C5230.02 976.333 5210.68 952 5201.35 922L5212.35 881V930C5212.35 959.333 5204.68 981.667 5189.35 997C5174.68 1012.33 5153.35 1020 5125.35 1020C5096.68 1020 5074.68 1012.33 5059.35 997C5044.68 981.667 5037.35 959.333 5037.35 930V387C5037.35 357.667 5045.02 335.333 5060.35 320C5075.68 304.667 5097.35 297 5125.35 297C5154.02 297 5176.02 304.667 5191.35 320C5207.35 335.333 5215.35 357.667 5215.35 387V601H5203.35C5213.35 573.667 5233.02 551.333 5262.35 534C5291.68 516.667 5324.68 508 5361.35 508C5404.02 508 5441.35 518.333 5473.35 539C5506.02 559.667 5531.35 589 5549.35 627C5567.35 665 5576.35 711 5576.35 765C5576.35 817.667 5567.35 863.333 5549.35 902C5531.35 940.667 5506.02 970.333 5473.35 991C5441.35 1011.67 5404.02 1022 5361.35 1022ZM5305.35 891C5323.35 891 5339.02 886.667 5352.35 878C5366.35 868.667 5377.35 855 5385.35 837C5393.35 818.333 5397.35 794.333 5397.35 765C5397.35 720.333 5388.68 688.333 5371.35 669C5354.02 649 5332.02 639 5305.35 639C5287.35 639 5271.35 643.333 5257.35 652C5243.35 660.667 5232.35 674.333 5224.35 693C5216.35 711 5212.35 735 5212.35 765C5212.35 809 5221.02 841 5238.35 861C5255.68 881 5278.02 891 5305.35 891ZM5906.47 1022C5851.8 1022 5804.14 1011.67 5763.47 991C5722.8 970.333 5691.14 940.667 5668.47 902C5645.8 863.333 5634.47 817.667 5634.47 765C5634.47 725 5640.8 689.333 5653.47 658C5666.14 626 5684.47 599 5708.47 577C5732.47 554.333 5761.14 537.333 5794.47 526C5827.8 514 5865.14 508 5906.47 508C5961.14 508 6008.8 518.333 6049.47 539C6090.14 559.667 6121.47 589.333 6143.47 628C6166.14 666 6177.47 711.667 6177.47 765C6177.47 804.333 6171.14 840 6158.47 872C6145.8 904 6127.47 931.333 6103.47 954C6080.14 976 6051.47 993 6017.47 1005C5984.14 1016.33 5947.14 1022 5906.47 1022ZM5906.47 891C5924.47 891 5940.47 886.667 5954.47 878C5968.47 868.667 5979.14 855 5986.47 837C5994.47 818.333 5998.47 794.333 5998.47 765C5998.47 720.333 5989.8 688.333 5972.47 669C5955.14 649 5933.14 639 5906.47 639C5888.47 639 5872.47 643.333 5858.47 652C5844.47 660.667 5833.47 674.333 5825.47 693C5817.47 711 5813.47 735 5813.47 765C5813.47 809 5822.14 841 5839.47 861C5856.8 881 5879.14 891 5906.47 891ZM6350.03 1020C6320.7 1020 6298.03 1012.33 6282.03 997C6266.7 981.667 6259.03 959.333 6259.03 930V599C6259.03 570.333 6266.36 548.333 6281.03 533C6296.36 517.667 6318.03 510 6346.03 510C6374.03 510 6395.36 517.667 6410.03 533C6424.7 548.333 6432.03 570.333 6432.03 599V640H6422.03C6428.7 600 6445.7 568.333 6473.03 545C6501.03 521.667 6535.7 509.333 6577.03 508C6596.36 507.333 6610.7 512.333 6620.03 523C6630.03 533 6635.36 552 6636.03 580C6636.03 604 6631.03 623 6621.03 637C6611.03 651 6592.03 659.333 6564.03 662L6541.03 664C6505.7 667.333 6480.03 677.333 6464.03 694C6448.03 710 6440.03 734 6440.03 766V930C6440.03 959.333 6432.36 981.667 6417.03 997C6401.7 1012.33 6379.36 1020 6350.03 1020Z" fill="white"/>
</svg>
